<?xml version="1.0" encoding="UTF-8" standalone="no"?>
<!DOCTYPE svg PUBLIC "-//W3C//DTD SVG 1.1//EN"
 "http://www.w3.org/Graphics/SVG/1.1/DTD/svg11.dtd">
<!-- Generated by graphviz version 2.47.3 (20210619.1520)
 -->
<!-- Title: dependencies Pages: 1 -->
<svg width="754pt" height="250pt"
 viewBox="0.00 0.00 754.00 249.80" xmlns="http://www.w3.org/2000/svg" xmlns:xlink="http://www.w3.org/1999/xlink">
<g id="graph0" class="graph" transform="scale(1 1) rotate(0) translate(4 245.8)">
<title>dependencies</title>
<polygon fill="white" stroke="transparent" points="-4,4 -4,-245.8 750,-245.8 750,4 -4,4"/>
<text text-anchor="middle" x="373" y="-8.2" font-family="sans-serif" font-size="14.00">dependencies</text>
<g id="clust1" class="cluster">
<title>cluster_AppModule</title>
<polygon fill="none" stroke="black" stroke-dasharray="1,5" points="281,-108.8 281,-233.8 627,-233.8 627,-108.8 281,-108.8"/>
</g>
<g id="clust3" class="cluster">
<title>cluster_AppModule_imports</title>
<polygon fill="none" stroke="black" points="289,-116.8 289,-168.8 619,-168.8 619,-116.8 289,-116.8"/>
</g>
<g id="clust7" class="cluster">
<title>cluster_AuthModule</title>
<polygon fill="none" stroke="black" stroke-dasharray="1,5" points="8,-32.8 8,-100.8 400,-100.8 400,-32.8 8,-32.8"/>
</g>
<g id="clust10" class="cluster">
<title>cluster_AuthModule_exports</title>
<polygon fill="none" stroke="black" points="290,-40.8 290,-92.8 392,-92.8 392,-40.8 290,-40.8"/>
</g>
<g id="clust12" class="cluster">
<title>cluster_AuthModule_providers</title>
<polygon fill="none" stroke="black" points="16,-40.8 16,-92.8 282,-92.8 282,-40.8 16,-40.8"/>
</g>
<g id="clust13" class="cluster">
<title>cluster_GamesModule</title>
<polygon fill="none" stroke="black" stroke-dasharray="1,5" points="408,-32.8 408,-100.8 574,-100.8 574,-32.8 408,-32.8"/>
</g>
<g id="clust18" class="cluster">
<title>cluster_GamesModule_providers</title>
<polygon fill="none" stroke="black" points="416,-40.8 416,-92.8 566,-92.8 566,-40.8 416,-40.8"/>
</g>
<g id="clust19" class="cluster">
<title>cluster_UsersModule</title>
<polygon fill="none" stroke="black" stroke-dasharray="1,5" points="582,-32.8 582,-100.8 738,-100.8 738,-32.8 582,-32.8"/>
</g>
<g id="clust24" class="cluster">
<title>cluster_UsersModule_providers</title>
<polygon fill="none" stroke="black" points="590,-40.8 590,-92.8 730,-92.8 730,-40.8 590,-40.8"/>
</g>
<!-- AuthModule -->
<g id="node1" class="node">
<title>AuthModule</title>
<polygon fill="#8dd3c7" stroke="black" points="384.55,-160.8 381.55,-164.8 360.55,-164.8 357.55,-160.8 297.45,-160.8 297.45,-124.8 384.55,-124.8 384.55,-160.8"/>
<text text-anchor="middle" x="341" y="-138.6" font-family="Times,serif" font-size="14.00">AuthModule</text>
</g>
<!-- AppModule -->
<g id="node4" class="node">
<title>AppModule</title>
<polygon fill="#8dd3c7" stroke="black" points="493.66,-225.8 490.66,-229.8 469.66,-229.8 466.66,-225.8 410.34,-225.8 410.34,-189.8 493.66,-189.8 493.66,-225.8"/>
<text text-anchor="middle" x="452" y="-203.6" font-family="Times,serif" font-size="14.00">AppModule</text>
</g>
<!-- AuthModule&#45;&gt;AppModule -->
<g id="edge1" class="edge">
<title>AuthModule&#45;&gt;AppModule</title>
<path fill="none" stroke="black" d="M341,-160.91C341,-180.14 341,-207.8 341,-207.8 341,-207.8 400.04,-207.8 400.04,-207.8"/>
<polygon fill="black" stroke="black" points="400.04,-211.3 410.04,-207.8 400.04,-204.3 400.04,-211.3"/>
</g>
<!-- JwtStrategy  -->
<g id="node5" class="node">
<title>JwtStrategy </title>
<polygon fill="#fb8072" stroke="black" points="383.6,-84.8 298.4,-84.8 298.4,-48.8 383.6,-48.8 383.6,-84.8"/>
<text text-anchor="middle" x="341" y="-62.6" font-family="Times,serif" font-size="14.00">JwtStrategy </text>
</g>
<!-- AuthModule&#45;&gt;JwtStrategy  -->
<g id="edge4" class="edge">
<title>AuthModule&#45;&gt;JwtStrategy </title>
<path fill="none" stroke="black" stroke-dasharray="5,2" d="M341,-124.79C341,-124.79 341,-94.95 341,-94.95"/>
<polygon fill="black" stroke="black" points="344.5,-94.95 341,-84.95 337.5,-94.95 344.5,-94.95"/>
</g>
<!-- GamesModule -->
<g id="node2" class="node">
<title>GamesModule</title>
<polygon fill="#8dd3c7" stroke="black" points="501.42,-160.8 498.42,-164.8 477.42,-164.8 474.42,-160.8 402.58,-160.8 402.58,-124.8 501.42,-124.8 501.42,-160.8"/>
<text text-anchor="middle" x="452" y="-138.6" font-family="Times,serif" font-size="14.00">GamesModule</text>
</g>
<!-- GamesModule&#45;&gt;AppModule -->
<g id="edge2" class="edge">
<title>GamesModule&#45;&gt;AppModule</title>
<path fill="none" stroke="black" d="M452,-160.91C452,-160.91 452,-179.79 452,-179.79"/>
<polygon fill="black" stroke="black" points="448.5,-179.79 452,-189.79 455.5,-179.79 448.5,-179.79"/>
</g>
<!-- UsersModule -->
<g id="node3" class="node">
<title>UsersModule</title>
<polygon fill="#8dd3c7" stroke="black" points="610.92,-160.8 607.92,-164.8 586.92,-164.8 583.92,-160.8 519.08,-160.8 519.08,-124.8 610.92,-124.8 610.92,-160.8"/>
<text text-anchor="middle" x="565" y="-138.6" font-family="Times,serif" font-size="14.00">UsersModule</text>
</g>
<!-- UsersModule&#45;&gt;AppModule -->
<g id="edge3" class="edge">
<title>UsersModule&#45;&gt;AppModule</title>
<path fill="none" stroke="black" d="M565,-160.91C565,-180.14 565,-207.8 565,-207.8 565,-207.8 503.76,-207.8 503.76,-207.8"/>
<polygon fill="black" stroke="black" points="503.76,-204.3 493.76,-207.8 503.76,-211.3 503.76,-204.3"/>
</g>
<!-- AuthService -->
<g id="node6" class="node">
<title>AuthService</title>
<ellipse fill="#fdb462" stroke="black" cx="215" cy="-66.8" rx="59.11" ry="18"/>
<text text-anchor="middle" x="215" y="-62.6" font-family="Times,serif" font-size="14.00">AuthService</text>
</g>
<!-- AuthService&#45;&gt;AuthModule -->
<g id="edge5" class="edge">
<title>AuthService&#45;&gt;AuthModule</title>
<path fill="none" stroke="black" d="M215,-84.83C215,-105.57 215,-136.8 215,-136.8 215,-136.8 287.28,-136.8 287.28,-136.8"/>
<polygon fill="black" stroke="black" points="287.28,-140.3 297.28,-136.8 287.28,-133.3 287.28,-140.3"/>
</g>
<!-- JwtStrategy -->
<g id="node7" class="node">
<title>JwtStrategy</title>
<ellipse fill="#fdb462" stroke="black" cx="81" cy="-66.8" rx="56.76" ry="18"/>
<text text-anchor="middle" x="81" y="-62.6" font-family="Times,serif" font-size="14.00">JwtStrategy</text>
</g>
<!-- JwtStrategy&#45;&gt;AuthModule -->
<g id="edge6" class="edge">
<title>JwtStrategy&#45;&gt;AuthModule</title>
<path fill="none" stroke="black" d="M81,-85C81,-109.16 81,-148.8 81,-148.8 81,-148.8 287.19,-148.8 287.19,-148.8"/>
<polygon fill="black" stroke="black" points="287.19,-152.3 297.19,-148.8 287.19,-145.3 287.19,-152.3"/>
</g>
<!-- GamesService -->
<g id="node8" class="node">
<title>GamesService</title>
<ellipse fill="#fdb462" stroke="black" cx="491" cy="-66.8" rx="66.61" ry="18"/>
<text text-anchor="middle" x="491" y="-62.6" font-family="Times,serif" font-size="14.00">GamesService</text>
</g>
<!-- GamesService&#45;&gt;GamesModule -->
<g id="edge7" class="edge">
<title>GamesService&#45;&gt;GamesModule</title>
<path fill="none" stroke="black" d="M462.7,-83.29C462.7,-83.29 462.7,-114.75 462.7,-114.75"/>
<polygon fill="black" stroke="black" points="459.2,-114.75 462.7,-124.75 466.2,-114.75 459.2,-114.75"/>
</g>
<!-- UsersService -->
<g id="node9" class="node">
<title>UsersService</title>
<ellipse fill="#fdb462" stroke="black" cx="660" cy="-66.8" rx="61.95" ry="18"/>
<text text-anchor="middle" x="660" y="-62.6" font-family="Times,serif" font-size="14.00">UsersService</text>
</g>
<!-- UsersService&#45;&gt;UsersModule -->
<g id="edge8" class="edge">
<title>UsersService&#45;&gt;UsersModule</title>
<path fill="none" stroke="black" d="M604.37,-74.93C604.37,-74.93 604.37,-114.68 604.37,-114.68"/>
<polygon fill="black" stroke="black" points="600.87,-114.68 604.37,-124.68 607.87,-114.68 600.87,-114.68"/>
</g>
</g>
</svg>
